<?xml version="1.0" encoding="UTF-8"?>
<svg width="32px" height="32px" viewBox="0 0 32 32" version="1.1" xmlns="http://www.w3.org/2000/svg" xmlns:xlink="http://www.w3.org/1999/xlink">
    <!-- Generator: Sketch 40.2 (33826) - http://www.bohemiancoding.com/sketch -->
    <title>linkedin-icon</title>
    <desc>Created with Sketch.</desc>
    <defs></defs>
    <g id="Page-3" stroke="none" stroke-width="1" fill="none" fill-rule="evenodd">
        <g id="Desktop-HD" transform="translate(-676.000000, -2389.000000)" fill="#F2F2F2">
            <g id="footer" transform="translate(0.000000, 2319.000000)">
                <g id="icons" transform="translate(672.000000, 70.000000)">
                    <path d="M33.632,0 L6.36088889,0 C5.05955556,0 4,1.03288889 4,2.30755556 L4,29.6906667 C4,30.9653333 5.05955556,32 6.36088889,32 L33.632,32 C34.9368889,32 35.9982222,30.9653333 35.9982222,29.6906667 L35.9982222,2.30755556 C35.9982222,1.03288889 34.9368889,0 33.632,0 Z M11.1198222,4.40533333 C12.6380444,4.40533333 13.8700444,5.63911111 13.8700444,7.15733333 C13.8700444,8.67733333 12.6380444,9.91111111 11.1198222,9.91111111 C9.59626667,9.91111111 8.36426667,8.67733333 8.36426667,7.15733333 C8.36426667,5.63911111 9.59626667,4.40533333 11.1198222,4.40533333 Z M8.74115556,27.2675556 L13.4931556,27.2675556 L13.4931556,11.9964444 L8.74115556,11.9964444 L8.74115556,27.2675556 Z M16.4704,11.9964444 L21.0197333,11.9964444 L21.0197333,14.0853333 L21.0837333,14.0853333 C21.7184,12.8835556 23.2650667,11.6177778 25.5744,11.6177778 C30.3815111,11.6177778 31.2686222,14.7786667 31.2686222,18.8924444 L31.2686222,27.2675556 L26.5237333,27.2675556 L26.5237333,19.84 C26.5237333,18.0693333 26.4935111,15.792 24.0579556,15.792 C21.5886222,15.792 21.2099556,17.7226667 21.2099556,19.7137778 L21.2099556,27.2675556 L16.4704,27.2675556 L16.4704,11.9964444 Z" id="linkedin"></path>
                </g>
            </g>
        </g>
    </g>
</svg>