<?xml version="1.0" encoding="UTF-8"?>
<svg width="32px" height="32px" viewBox="0 0 32 32" version="1.1" xmlns="http://www.w3.org/2000/svg" xmlns:xlink="http://www.w3.org/1999/xlink">
    <!-- Generator: Sketch 40.2 (33826) - http://www.bohemiancoding.com/sketch -->
    <title>octocat</title>
    <desc>Created with Sketch.</desc>
    <defs></defs>
    <g id="Page-3" stroke="none" stroke-width="1" fill="none" fill-rule="evenodd">
        <g id="Desktop-HD" transform="translate(-728.000000, -2389.000000)" fill="#F2F2F2">
            <g id="footer" transform="translate(0.000000, 2319.000000)">
                <g id="icons" transform="translate(672.000000, 70.000000)">
                    <path d="M71.9990178,0 C63.1641498,0 56,7.16316759 56,16.0009822 C56,23.0688766 60.5839165,29.0651934 66.9426642,31.1818293 C67.7431553,31.3281768 68.034868,30.8341314 68.034868,30.409822 C68.034868,30.0306937 68.0211172,29.0239411 68.0132597,27.6891344 C63.562922,28.6556169 62.6239411,25.5440147 62.6239411,25.5440147 C61.8961326,23.6955187 60.8471455,23.2044199 60.8471455,23.2044199 C59.3944751,22.211418 60.9571516,22.231062 60.9571516,22.231062 C62.5630448,22.3449969 63.4077348,23.8801719 63.4077348,23.8801719 C64.834868,26.3248619 67.1518723,25.6186618 68.0643339,25.2100675 C68.2096992,24.1758134 68.6222222,23.4705955 69.0799263,23.070841 C65.5273174,22.6671578 61.7920196,21.2940454 61.7920196,15.1631676 C61.7920196,13.4168201 62.4157152,11.9887047 63.4391651,10.8699816 C63.2741559,10.4653161 62.7251074,8.83879681 63.5953346,6.63572744 C63.5953346,6.63572744 64.938981,6.20552486 67.9955801,8.27599754 C69.2714549,7.92044199 70.6406384,7.74364641 72.0009822,7.73677103 C73.3593616,7.74364641 74.7285451,7.92044199 76.0063843,8.27599754 C79.061019,6.20552486 80.4017188,6.63572744 80.4017188,6.63572744 C81.2748926,8.83879681 80.7258441,10.4653161 80.5608349,10.8699816 C81.5862492,11.9887047 82.206016,13.4168201 82.206016,15.1631676 C82.206016,21.3097606 78.464825,22.6622468 74.9004297,23.0580724 C75.4750153,23.5521179 75.9867403,24.5284223 75.9867403,26.0213628 C75.9867403,28.1596071 75.9670964,29.8853284 75.9670964,30.409822 C75.9670964,30.8380602 76.2548803,31.3360344 77.0671578,31.1798649 C83.4190301,29.0593002 88,23.0669122 88,16.0009822 C88,7.16316759 80.8358502,0 71.9990178,0" id="octocat"></path>
                </g>
            </g>
        </g>
    </g>
</svg>